<svg width="202" height="39" viewBox="0 0 202 39" fill="none" xmlns="http://www.w3.org/2000/svg">
<path d="M190 38.976V36.384C191.92 36.352 193.216 36.032 193.888 35.424C194.592 34.816 194.944 33.68 194.944 32.016V25.68C194.944 23.888 195.28 22.512 195.952 21.552C196.624 20.592 197.408 19.904 198.304 19.488C197.408 19.04 196.624 18.352 195.952 17.424C195.28 16.464 194.944 15.088 194.944 13.296V6.96C194.944 5.264 194.592 4.128 193.888 3.552C193.216 2.944 191.92 2.624 190 2.592V0C191.152 0 192.208 0.0640001 193.168 0.192C194.16 0.320001 195.024 0.608001 195.76 1.056C196.496 1.472 197.072 2.144 197.488 3.072C197.904 4 198.112 5.28 198.112 6.912V13.824C198.112 14.88 198.32 15.744 198.736 16.416C199.184 17.088 199.696 17.584 200.272 17.904C200.88 18.224 201.424 18.384 201.904 18.384V20.592C201.424 20.592 200.88 20.752 200.272 21.072C199.696 21.392 199.184 21.888 198.736 22.56C198.32 23.232 198.112 24.096 198.112 25.152V32.064C198.112 33.696 197.904 34.976 197.488 35.904C197.072 36.832 196.496 37.504 195.76 37.92C195.024 38.368 194.16 38.656 193.168 38.784C192.208 38.912 191.152 38.976 190 38.976Z" fill="#34d399"/>
<path d="M11.904 38.976C10.752 38.976 9.68 38.912 8.688 38.784C7.728 38.656 6.88 38.368 6.144 37.92C5.408 37.504 4.832 36.832 4.416 35.904C4 34.976 3.792 33.696 3.792 32.064V25.152C3.792 24.096 3.568 23.232 3.12 22.56C2.704 21.888 2.208 21.392 1.632 21.072C1.056 20.752 0.512 20.592 0 20.592V18.384C0.512 18.384 1.056 18.224 1.632 17.904C2.208 17.584 2.704 17.088 3.12 16.416C3.568 15.744 3.792 14.88 3.792 13.824V6.912C3.792 5.28 4 4 4.416 3.072C4.832 2.144 5.408 1.472 6.144 1.056C6.88 0.608001 7.728 0.320001 8.688 0.192C9.68 0.0640001 10.752 0 11.904 0V2.592C9.984 2.624 8.672 2.944 7.968 3.552C7.296 4.128 6.96 5.264 6.96 6.96V13.296C6.96 15.088 6.624 16.464 5.952 17.424C5.28 18.352 4.496 19.04 3.6 19.488C4.496 19.904 5.28 20.592 5.952 21.552C6.624 22.512 6.96 23.888 6.96 25.68V32.016C6.96 33.68 7.296 34.816 7.968 35.424C8.672 36.032 9.984 36.352 11.904 36.384V38.976Z" fill="#34d399"/>
<path d="M52.944 36.752C51.152 36.752 49.52 36.352 48.048 35.552C46.608 34.72 45.472 33.584 44.64 32.144C43.84 30.672 43.44 28.992 43.44 27.104V11.024C43.44 10.288 43.264 9.632 42.912 9.056C42.56 8.448 42.08 7.968 41.472 7.616C40.896 7.264 40.256 7.088 39.552 7.088C38.848 7.088 38.208 7.264 37.632 7.616C37.056 7.968 36.592 8.448 36.24 9.056C35.888 9.632 35.712 10.288 35.712 11.024V36.224H30V11.744C30 9.92 30.4 8.288 31.2 6.848C32 5.376 33.12 4.208 34.56 3.344C36 2.48 37.664 2.048 39.552 2.048C41.472 2.048 43.152 2.48 44.592 3.344C46.032 4.208 47.152 5.376 47.952 6.848C48.752 8.288 49.152 9.92 49.152 11.744V27.824C49.152 28.528 49.328 29.184 49.68 29.792C50.032 30.368 50.496 30.832 51.072 31.184C51.648 31.536 52.272 31.712 52.944 31.712C53.648 31.712 54.288 31.536 54.864 31.184C55.44 30.832 55.904 30.368 56.256 29.792C56.608 29.184 56.784 28.528 56.784 27.824V11.744C56.784 9.92 57.184 8.288 57.984 6.848C58.784 5.376 59.904 4.208 61.344 3.344C62.816 2.48 64.496 2.048 66.384 2.048C68.304 2.048 69.968 2.48 71.376 3.344C72.816 4.208 73.936 5.376 74.736 6.848C75.536 8.288 75.936 9.92 75.936 11.744V36.224H70.176V11.024C70.176 10.288 70 9.632 69.648 9.056C69.328 8.448 68.88 7.968 68.304 7.616C67.728 7.264 67.088 7.088 66.384 7.088C65.68 7.088 65.024 7.264 64.416 7.616C63.84 7.968 63.376 8.448 63.024 9.056C62.672 9.632 62.496 10.288 62.496 11.024V27.104C62.496 28.992 62.08 30.672 61.248 32.144C60.416 33.584 59.28 34.72 57.84 35.552C56.432 36.352 54.8 36.752 52.944 36.752Z" fill="#134e4a"/>
<path d="M81.5479 36.224V31.184H87.7879V7.664H81.5479V2.624H99.7879V7.664H93.5479V31.184H99.7879V36.224H81.5479Z" fill="#134e4a"/>
<path d="M102.35 36.224L113.534 6.08C114.078 4.704 114.862 3.696 115.886 3.056C116.91 2.384 118.078 2.048 119.39 2.048C120.734 2.048 121.918 2.368 122.942 3.008C123.998 3.648 124.782 4.656 125.294 6.032L136.526 36.224H130.238L127.646 28.784H111.038L108.35 36.224H102.35ZM112.766 23.696H125.918L120.542 8C120.414 7.68 120.254 7.44 120.062 7.28C119.902 7.12 119.694 7.04 119.438 7.04C119.182 7.04 118.974 7.136 118.814 7.328C118.654 7.488 118.526 7.712 118.43 8L112.766 23.696Z" fill="#134e4a"/>
<path d="M154.362 36.848C151.706 36.848 149.29 36.4 147.114 35.504C144.97 34.576 143.13 33.312 141.594 31.712C140.09 30.112 138.922 28.256 138.09 26.144C137.258 24.032 136.842 21.776 136.842 19.376C136.842 16.976 137.258 14.736 138.09 12.656C138.922 10.544 140.09 8.688 141.594 7.088C143.13 5.488 144.97 4.24 147.114 3.344C149.29 2.448 151.706 2 154.362 2C157.05 2 159.466 2.448 161.61 3.344C163.754 4.24 165.594 5.488 167.13 7.088C168.666 8.688 169.85 10.544 170.682 12.656C171.514 14.736 171.93 16.976 171.93 19.376C171.93 21.776 171.514 24.032 170.682 26.144C169.85 28.256 168.666 30.112 167.13 31.712C165.594 33.312 163.754 34.576 161.61 35.504C159.466 36.4 157.05 36.848 154.362 36.848ZM154.362 31.76C156.058 31.76 157.626 31.456 159.066 30.848C160.506 30.24 161.754 29.376 162.81 28.256C163.898 27.104 164.73 25.776 165.306 24.272C165.882 22.768 166.17 21.136 166.17 19.376C166.17 17.616 165.882 15.984 165.306 14.48C164.73 12.976 163.898 11.68 162.81 10.592C161.754 9.472 160.506 8.608 159.066 8C157.626 7.36 156.058 7.04 154.362 7.04C152.666 7.04 151.098 7.36 149.658 8C148.25 8.608 147.002 9.472 145.914 10.592C144.858 11.68 144.026 12.976 143.418 14.48C142.842 15.984 142.554 17.616 142.554 19.376C142.554 21.168 142.842 22.816 143.418 24.32C144.026 25.792 144.858 27.104 145.914 28.256C147.002 29.376 148.25 30.24 149.658 30.848C151.098 31.456 152.666 31.76 154.362 31.76Z" fill="#134e4a"/>
</svg>
